<svg width="395" height="394" viewBox="0 0 395 394" fill="none" xmlns="http://www.w3.org/2000/svg">
<mask id="mask0_1236_435" style="mask-type:alpha" maskUnits="userSpaceOnUse" x="0" y="0" width="395" height="394">
<rect width="395" height="394" fill="#D9D9D9"/>
</mask>
<g mask="url(#mask0_1236_435)">
<path d="M152.981 44.1133H178.094V238.983H152.981V44.1133Z" fill="#DCE3EE"/>
<path d="M-29.8044 22.7203C-25.3881 20.2532 -20.4082 18.9716 -15.3496 19.0005H126.481C131.539 18.9703 136.52 20.252 140.935 22.7203C146.871 26.0931 153.02 32.4146 153.02 44.1133H-41.85C-41.8886 32.4146 -35.7405 26.0931 -29.8044 22.7203Z" fill="#DCE3EE"/>
<path d="M140.896 260.375C136.482 262.848 131.501 264.13 126.441 264.095H-15.3886C-20.4478 264.129 -25.4289 262.847 -29.8433 260.375C-35.7794 257.003 -41.9276 250.739 -41.9276 238.982H152.98C152.98 250.691 146.832 257.003 140.896 260.375Z" fill="#DCE3EE"/>
<path d="M351.116 264.123H376.229V458.993H351.116V264.123Z" fill="#DCE3EE"/>
<path d="M131.135 264.123H156.248V458.993H131.135V264.123Z" fill="#DCE3EE"/>
<path d="M168.332 242.72C172.747 240.249 177.728 238.967 182.787 239.001H324.617C329.677 238.966 334.658 240.248 339.072 242.72C345.008 246.093 351.156 252.415 351.156 264.113H156.287C156.248 252.424 162.406 246.103 168.332 242.72Z" fill="#DCE3EE"/>
</g>
</svg>
