<svg width="30" height="22" viewBox="0 0 30 22" fill="none" xmlns="http://www.w3.org/2000/svg">
<path d="M26.3658 1H3.63416C2.17935 1 1 2.18979 1 3.65746V18.4209C1 19.8886 2.17935 21.0784 3.63416 21.0784H26.3658C27.8206 21.0784 29 19.8886 29 18.4209V3.65746C29 2.18979 27.8206 1 26.3658 1Z" stroke="#9CA3AE" stroke-miterlimit="10"/>
<path d="M21.6597 15.028C21.6597 16.4328 20.532 17.5641 19.1501 17.5641C17.7683 17.5641 16.6406 16.4328 16.6406 15.028C16.6406 13.6231 17.7683 12.4918 19.1501 12.4918C20.532 12.4918 21.6597 13.6231 21.6597 15.028Z" fill="#F5F5F5" stroke="#9CA3AE"/>
<path d="M25.5933 15.028C25.5933 16.4328 24.4656 17.5641 23.0837 17.5641C21.7019 17.5641 20.5742 16.4328 20.5742 15.028C20.5742 13.6231 21.7019 12.4918 23.0837 12.4918C24.4656 12.4918 25.5933 13.6231 25.5933 15.028Z" fill="#F5F5F5" stroke="#9CA3AE"/>
<path d="M3.91992 13.7554H12.3215" stroke="#9CA3AE" stroke-miterlimit="10" stroke-linecap="round" stroke-linejoin="round"/>
<path d="M3.91992 16.4988H8.74645" stroke="#9CA3AE" stroke-miterlimit="10" stroke-linecap="round" stroke-linejoin="round"/>
<path d="M29 5.26855H1V9.05535H29V5.26855Z" fill="#9CA3AE"/>
</svg>
