<svg width="16" height="16" viewBox="0 0 16 16" fill="none" xmlns="http://www.w3.org/2000/svg">
<mask id="mask0_445_3969" style="mask-type:alpha" maskUnits="userSpaceOnUse" x="0" y="0" width="16" height="16">
<rect width="16" height="16" fill="#D9D9D9"/>
</mask>
<g mask="url(#mask0_445_3969)">
<g opacity="0.8">
<path d="M13.5497 6.71897L9.56934 2.67517L1.80092 10.3217L5.78127 14.3655L13.5497 6.71897Z" fill="#9CA3AE"/>
<path d="M13.0659 0.791694L15.587 3.35303C15.7805 3.54962 15.888 3.81502 15.8858 4.09086C15.8836 4.36669 15.772 4.63036 15.5754 4.82386L14.391 5.98967L10.4132 1.94851L11.5976 0.782702C11.7938 0.589647 12.0584 0.482194 12.3336 0.48388C12.6088 0.485565 12.8721 0.596252 13.0659 0.791694V0.791694Z" fill="#9CA3AE"/>
<path d="M1.00879 11.101L0.81398 14.5542C0.806705 14.6628 0.822504 14.7716 0.860334 14.8735C0.898165 14.9755 0.957163 15.0683 1.03345 15.1458C1.10975 15.2233 1.2016 15.2838 1.30295 15.3232C1.4043 15.3627 1.51286 15.3802 1.62148 15.3746L4.9786 15.1551L1.00879 11.101Z" fill="#9CA3AE"/>
</g>
</g>
</svg>
