<svg width="11" height="21" viewBox="0 0 11 21" fill="none" xmlns="http://www.w3.org/2000/svg">
<path d="M0.285156 6.66009H2.61251V5.42172C2.61251 4.03347 2.75422 2.99839 3.03762 2.3165C3.32102 1.6346 3.84377 1.07719 4.60586 0.644274C5.36676 0.21507 6.3292 0.000313301 7.49318 3.62995e-06C8.68259 -0.000955028 9.86509 0.187976 10.9994 0.560198L10.4332 3.60272C9.80308 3.44163 9.157 3.35792 8.50816 3.35328C7.90042 3.35328 7.46639 3.50285 7.20248 3.79641C6.93858 4.08998 6.80641 4.65761 6.80641 5.49604V6.65731H9.942V10.0905H6.8073V20.7142H2.61251V10.0933H0.285156V6.66009Z" fill="white"/>
</svg>
