<svg width="14" height="19" viewBox="0 0 14 19" fill="none" xmlns="http://www.w3.org/2000/svg">
<path d="M11.6357 17.429H2.67519C2.27907 17.429 1.89918 17.2717 1.61909 16.9916C1.339 16.7115 1.18164 16.3316 1.18164 15.9355V7.47302H13.1293V15.9355C13.1293 16.3316 12.9719 16.7115 12.6918 16.9916C12.4117 17.2717 12.0318 17.429 11.6357 17.429Z" fill="#9CA3AE" stroke="#9CA3AE" stroke-width="1.5" stroke-linecap="round" stroke-linejoin="round"/>
<path d="M3.17188 7.47301V4.98254C3.17187 4.45955 3.27489 3.94167 3.47503 3.45849C3.67517 2.97531 3.96852 2.53627 4.33834 2.16646C4.70815 1.79665 5.14718 1.50329 5.63037 1.30315C6.11355 1.10301 6.63142 1 7.15442 1C7.67741 1 8.19529 1.10301 8.67847 1.30315C9.16166 1.50329 9.60069 1.79665 9.9705 2.16646C10.3403 2.53627 10.6337 2.97531 10.8338 3.45849C11.034 3.94167 11.137 4.45955 11.137 4.98254V7.47301" stroke="#9CA3AE" stroke-width="1.5" stroke-linecap="round" stroke-linejoin="round"/>
<path d="M7.08598 12.0174C7.35784 12.0174 7.57822 11.797 7.57822 11.5252C7.57822 11.2533 7.35784 11.033 7.08598 11.033C6.81413 11.033 6.59375 11.2533 6.59375 11.5252C6.59375 11.797 6.81413 12.0174 7.08598 12.0174Z" stroke="white" stroke-width="1.5" stroke-linecap="round" stroke-linejoin="round"/>
<path d="M7.08594 13.9855V12.0173" stroke="white" stroke-width="1.5" stroke-linecap="round" stroke-linejoin="round"/>
</svg>
