<svg width="66" height="43" viewBox="0 0 66 43" fill="none" xmlns="http://www.w3.org/2000/svg">
<path d="M11.2908 42.2918C14.1212 42.2918 16.4156 39.9974 16.4156 37.167C16.4156 34.3367 14.1212 32.0422 11.2908 32.0422C8.46046 32.0422 6.16602 34.3367 6.16602 37.167C6.16602 39.9974 8.46046 42.2918 11.2908 42.2918Z" stroke="#204FF4" stroke-width="0.674699" stroke-miterlimit="10"/>
<path d="M51.5301 42.4659C54.3604 42.4659 56.6549 40.1714 56.6549 37.3411C56.6549 34.5108 54.3604 32.2163 51.5301 32.2163C48.6997 32.2163 46.4053 34.5108 46.4053 37.3411C46.4053 40.1714 48.6997 42.4659 51.5301 42.4659Z" stroke="#204FF4" stroke-width="0.674699" stroke-miterlimit="10"/>
<path d="M48.084 17.2358L63.183 17.3348" stroke="#204FF4" stroke-width="0.674699" stroke-miterlimit="10"/>
<path d="M3.46848 38.1396L0.738281 35.1534C1.16857 31.5927 2.05711 29.2498 2.76279 27.8771C3.0091 27.4034 3.36809 26.9975 3.80816 26.6951C4.24824 26.3927 4.75589 26.2031 5.28646 26.143L17.765 24.7016L24.4517 19.2132C26.1203 17.8468 28.2138 17.1064 30.3704 17.1198L32.4874 17.1327" stroke="#204FF4" stroke-width="0.674699" stroke-miterlimit="10"/>
<path d="M60.4831 17.3176L63.5941 26.9454L64.8226 28.9549L63.6027 35.2071C63.485 35.8082 63.162 36.3497 62.6891 36.7391C62.2162 37.1284 61.6227 37.3413 61.0102 37.3413H58.7705" stroke="#204FF4" stroke-width="0.674699" stroke-miterlimit="10"/>
<path d="M44.1224 37.3413H18.6104" stroke="#204FF4" stroke-width="0.674699" stroke-miterlimit="10"/>
<path d="M17.7734 24.7015H52.4486L56.2137 20.4976" stroke="#204FF4" stroke-width="0.674699" stroke-miterlimit="10"/>
<path d="M40.3335 20.8159C45.9585 20.8159 50.5185 16.2559 50.5185 10.6308C50.5185 5.0058 45.9585 0.445801 40.3335 0.445801C34.7084 0.445801 30.1484 5.0058 30.1484 10.6308C30.1484 16.2559 34.7084 20.8159 40.3335 20.8159Z" stroke="#204FF4" stroke-width="0.674699" stroke-miterlimit="10"/>
<path d="M34.7031 10.5102L39.4493 15.1079L45.9639 6.15137" stroke="#204FF4" stroke-width="0.674699" stroke-miterlimit="10"/>
</svg>
