<svg width="53" height="53" viewBox="0 0 53 53" fill="none" xmlns="http://www.w3.org/2000/svg">
<path d="M45.1464 28.1814C41.4159 29.4856 38.0577 31.6755 35.3598 34.5631C32.6619 37.4506 30.7049 40.9497 29.6567 44.76H22.9188C22.1078 41.8069 20.7645 39.0267 18.9551 36.5559C15.6713 32.0918 11.5389 29.5594 8.0619 28.1312M10.7221 18.9049C21.1203 16.4705 31.9404 16.4705 42.3386 18.9049M6.68998 30.0355C9.95856 31.2979 13.9709 33.628 17.1178 37.9065C20.1248 41.9934 21.1408 46.2962 21.4617 49.2211C16.724 48.1542 12.438 45.6335 9.20296 42.0115C5.96791 38.3895 3.94547 33.8471 3.41835 29.0194L5.17812 29.5062C5.33022 29.5548 5.49449 29.6081 5.65723 29.6583L5.75153 29.6887C6.05573 29.7936 6.36905 29.9062 6.68998 30.0309M52.0501 27.8772C52.0448 27.8337 52.0372 27.7906 52.0273 27.7479C52.0465 27.3423 52.0567 26.9367 52.0577 26.5311C52.0586 24.2337 51.7485 21.9467 51.136 19.7324C51.126 19.6809 51.1128 19.6301 51.0964 19.5803C48.0636 8.86954 38.1985 1 26.5296 1C14.8607 1 4.99713 8.87562 1.9643 19.5863C1.9473 19.636 1.93408 19.6868 1.92475 19.7384C1.31182 21.9512 1.00075 24.2366 1 26.5326C1 26.8247 1 27.1152 1.01673 27.4057C0.991069 27.561 0.997801 27.72 1.0365 27.8726C1.65554 39.7362 10.4194 49.4903 21.8313 51.6212C21.9378 51.7566 22.0736 51.8661 22.2285 51.9414C22.3834 52.0168 22.5534 52.056 22.7256 52.0562H22.7637C22.9755 52.0504 23.1814 51.9856 23.3584 51.8691C25.317 52.1133 27.2974 52.1296 29.2598 51.9178C29.4191 52.0105 29.5988 52.0627 29.783 52.0699H29.8195C29.9683 52.07 30.1157 52.0408 30.2533 51.9839C30.3908 51.927 30.5158 51.8436 30.621 51.7383C42.1592 49.869 51.1284 40.2397 51.9832 28.3958C52.0453 28.2305 52.0682 28.0529 52.0501 27.8772ZM47.5602 17.9924C45.5677 17.4631 42.071 16.8075 38.4784 16.1961C30.3343 14.813 22.0126 14.846 13.8796 16.2934C10.4985 16.9018 7.21319 17.5361 5.19334 18.0745L4.84655 18.1673C8.21552 9.47488 16.6645 3.29668 26.5296 3.29668C36.3947 3.29668 44.8452 9.47488 48.2142 18.1657L47.5602 17.9924ZM23.7918 49.6165C23.728 48.856 23.6185 47.986 23.4435 47.04H29.1198C28.9547 47.9104 28.8339 48.7886 28.7578 49.6713C28.0247 49.7412 27.281 49.7793 26.5296 49.7793C25.6146 49.7789 24.7004 49.7246 23.7918 49.6165ZM31.0819 49.3306C31.1933 48.301 31.3716 47.2798 31.6158 46.2734C31.6361 46.2123 31.6519 46.1498 31.6629 46.0863C32.5686 42.3198 34.4438 38.8558 37.1024 36.0382C39.7609 33.2206 43.1103 31.1475 46.8179 30.0248L46.8727 30.0081C47.7711 29.7326 48.6854 29.5117 49.6104 29.3465C49.0102 34.2007 46.8977 38.7429 43.5723 42.3296C40.2468 45.9164 35.8769 48.3657 31.0819 49.3306Z" stroke="#204FF4" stroke-width="0.701001" stroke-miterlimit="10"/>
<path d="M26.5302 20.2783C24.9867 20.2786 23.478 20.7366 22.1948 21.5943C20.9116 22.452 19.9116 23.671 19.3212 25.097C18.7307 26.523 18.5764 28.0921 18.8777 29.6059C19.179 31.1197 19.9224 32.5101 21.0139 33.6014C22.1053 34.6926 23.4959 35.4357 25.0097 35.7367C26.5235 36.0377 28.0926 35.8831 29.5185 35.2924C30.9445 34.7017 32.1632 33.7014 33.0207 32.418C33.8781 31.1347 34.3358 29.6259 34.3358 28.0825C34.3334 26.0131 33.5102 24.0293 32.0468 22.5662C30.5835 21.1031 28.5995 20.2803 26.5302 20.2783ZM26.5302 33.3694C25.4845 33.3694 24.4623 33.0593 23.5929 32.4784C22.7235 31.8974 22.0458 31.0717 21.6457 30.1057C21.2455 29.1396 21.1408 28.0766 21.3448 27.051C21.5488 26.0255 22.0524 25.0834 22.7917 24.344C23.5311 23.6046 24.4732 23.1011 25.4987 22.8971C26.5243 22.6931 27.5873 22.7978 28.5534 23.198C29.5194 23.5981 30.3451 24.2758 30.9261 25.1452C31.507 26.0146 31.8171 27.0368 31.8171 28.0825C31.8155 29.4841 31.2579 30.828 30.2668 31.8191C29.2757 32.8102 27.9318 33.3678 26.5302 33.3694Z" stroke="#204FF4" stroke-width="0.701001" stroke-miterlimit="10"/>
</svg>
