<svg width="74" height="70" viewBox="0 0 74 70" fill="none" xmlns="http://www.w3.org/2000/svg">
<path d="M59.7152 0.192871L16.4375 69.6868" stroke="#204FF4" stroke-width="0.674699" stroke-miterlimit="10"/>
<path d="M41.4746 56.7144C41.4746 56.7144 44.4176 54.3957 44.3545 48.9429C44.3545 48.9429 43.7287 40.942 44.7302 39.5214C45.7316 38.1007 47.4439 35.1341 47.8196 33.5883C48.1953 32.0425 50.5327 31.9197 51.5348 29.4103C52.5368 26.9008 54.4986 28.7416 54.333 30.6617C54.1675 32.5818 53.1226 34.3386 52.0789 35.9261C51.0352 37.5137 51.3049 37.7229 51.808 39.1644C52.3111 40.6059 53.4674 41.9533 53.843 45.6511C54.0931 48.114 53.2792 50.195 52.8095 51.1336" stroke="#204FF4" stroke-width="0.674699" stroke-miterlimit="10"/>
<path d="M53.8096 28.7101V22.2943C53.8096 22.1149 53.8449 21.9373 53.9135 21.7715C53.9821 21.6057 54.0827 21.4551 54.2095 21.3283C54.3363 21.2015 54.4867 21.1009 54.6524 21.0323C54.818 20.9637 54.9955 20.9284 55.1748 20.9285H67.7224C67.9017 20.9284 68.0792 20.9637 68.2448 21.0323C68.4104 21.1009 68.5609 21.2015 68.6877 21.3283C68.8145 21.4551 68.9151 21.6057 68.9837 21.7715C69.0523 21.9373 69.0876 22.1149 69.0876 22.2943V35.3451" stroke="#204FF4" stroke-width="0.674699" stroke-miterlimit="10"/>
<path d="M53.8096 45.2036V32.8989" stroke="#204FF4" stroke-width="0.674699" stroke-miterlimit="10"/>
<path d="M69.0876 48.6158V50.9614C69.0876 51.1408 69.0523 51.3185 68.9837 51.4842C68.9151 51.65 68.8145 51.8006 68.6877 51.9274C68.5609 52.0543 68.4104 52.1549 68.2448 52.2235C68.0792 52.2921 67.9017 52.3273 67.7224 52.3273H55.1748C54.9955 52.3273 54.818 52.2921 54.6524 52.2235C54.4867 52.1549 54.3363 52.0543 54.2095 51.9274C54.0827 51.8006 53.9821 51.65 53.9135 51.4842C53.8449 51.3185 53.8096 51.1408 53.8096 50.9614V47.9448" stroke="#204FF4" stroke-width="0.674699" stroke-miterlimit="10"/>
<path d="M53.4961 60.7883C54.8113 59.0333 54.9988 58.0935 56.8773 57.2128C58.7557 56.332 61.2604 55.27 62.8906 52.3262" stroke="#204FF4" stroke-width="0.674699" stroke-miterlimit="10"/>
<path d="M69.0879 29.5355C69.0879 29.5355 71.4468 27.5296 72.6894 28.9712C73.8206 30.2822 72.0309 32.272 69.0879 34.3196" stroke="#204FF4" stroke-width="0.674699" stroke-miterlimit="10"/>
<path d="M70.4032 43.616C69.7739 43.9867 68.1491 44.8383 67.5543 45.9663C66.9595 47.0944 67.7102 49.5699 70.5282 48.0032C73.3461 46.4365 72.8901 45.3394 72.5858 44.4932C72.2816 43.647 71.1426 43.1774 70.4032 43.616Z" stroke="#204FF4" stroke-width="0.674699" stroke-miterlimit="10"/>
<path d="M70.0891 39.1973C68.8495 39.9678 67.8666 41.1043 68.2113 42.4534C68.556 43.8026 69.4949 44.0547 70.4029 43.6161C71.3108 43.1775 72.8439 41.8283 72.8142 40.6365C72.7844 39.4446 71.9038 38.0692 70.0891 39.1973Z" stroke="#204FF4" stroke-width="0.674699" stroke-miterlimit="10"/>
<path d="M70.0887 34.633C68.8301 35.4989 68.4473 36.0323 68.5407 37.3487C68.6342 38.6651 69.1468 39.4773 70.4769 38.9869C71.71 38.5322 72.1547 37.944 72.3428 37.3779C72.531 36.8117 72.656 35.4667 71.8106 34.8398C70.9651 34.2129 70.2804 34.5007 70.0887 34.633Z" stroke="#204FF4" stroke-width="0.674699" stroke-miterlimit="10"/>
<path d="M59.6982 23.0278H63.1645" stroke="#204FF4" stroke-width="0.674699" stroke-miterlimit="10"/>
<path d="M58.9844 50.2278H63.9141" stroke="#204FF4" stroke-width="0.674699" stroke-miterlimit="10"/>
<path d="M43.3265 14.1619H5.06618C4.95565 14.1619 4.84963 14.2058 4.77147 14.284C4.69331 14.3623 4.64941 14.4684 4.64941 14.579V39.9398C4.64941 40.0505 4.69331 40.1566 4.77147 40.2348C4.84963 40.313 4.95565 40.357 5.06618 40.357H10.1067" stroke="#204FF4" stroke-width="0.674699" stroke-miterlimit="10"/>
<path d="M28.0786 38.1133H7.30739C7.19686 38.1133 7.09084 38.0693 7.01268 37.9911C6.93452 37.9129 6.89062 37.8068 6.89062 37.6961V16.8224C6.89062 16.7118 6.93452 16.6057 7.01268 16.5275C7.09084 16.4492 7.19686 16.4053 7.30739 16.4053H42.2481" stroke="#204FF4" stroke-width="0.674699" stroke-miterlimit="10"/>
<path d="M25.4822 42.8449H24.6701C24.5015 42.8448 24.3352 42.8049 24.1849 42.7283C24.0346 42.6518 23.9044 42.5409 23.805 42.4045C23.7056 42.2681 23.5755 42.1572 23.4251 42.0807C23.2748 42.0041 23.1086 41.9642 22.9399 41.9641H1.71346C1.59267 41.9642 1.47413 41.9968 1.37027 42.0585C1.26642 42.1202 1.18107 42.2088 1.12321 42.315C1.06535 42.4211 1.03712 42.5408 1.04145 42.6617C1.04578 42.7825 1.08254 42.8999 1.14785 43.0016L2.47078 45.0558C2.57349 45.2151 2.71453 45.3461 2.88098 45.4367C3.04742 45.5273 3.23393 45.5746 3.42339 45.5742H23.7854" stroke="#204FF4" stroke-width="0.674699" stroke-miterlimit="10"/>
<path d="M19.2773 22.3279V30.9084L21.4718 28.7573L23.0258 32.1085L24.3834 31.4843L22.6745 28.3826H25.4546L19.2773 22.3279Z" stroke="#204FF4" stroke-width="0.674699" stroke-miterlimit="10"/>
</svg>
