<svg width="89" height="35" viewBox="0 0 89 35" fill="none" xmlns="http://www.w3.org/2000/svg">
<path d="M83.2948 21.9527V20.5117C83.2947 20.3125 83.2373 20.1175 83.1293 19.9501C83.0213 19.7827 82.8674 19.65 82.686 19.5677L79.3835 18.0715C79.2021 17.9896 79.0482 17.8571 78.9402 17.6899C78.8322 17.5227 78.7747 17.3279 78.7747 17.1288V13.2012C78.7751 12.9533 78.8737 12.7157 79.049 12.5404C79.2243 12.3651 79.462 12.2664 79.7099 12.2661H87.7433C87.8632 12.2662 87.9817 12.2397 88.0901 12.1884C88.1986 12.1372 88.2943 12.0626 88.3704 11.9699C88.4466 11.8772 88.5012 11.7688 88.5303 11.6524C88.5595 11.5361 88.5625 11.4147 88.5391 11.2971L88.2077 9.6201C88.1055 9.10469 87.8277 8.64073 87.4216 8.30723C87.0156 7.97374 86.5064 7.79138 85.981 7.79126H70.1815C70.0644 7.7911 69.9483 7.81403 69.84 7.85874C69.7318 7.90345 69.6334 7.96906 69.5505 8.05184C69.4676 8.13461 69.4019 8.23292 69.357 8.34113C69.3121 8.44933 69.289 8.56531 69.289 8.68245V24.7794" stroke="#204FF4" stroke-width="0.674699" stroke-miterlimit="10"/>
<path d="M81.916 6.13176C81.916 6.13176 77.8353 1.64308 69.9688 1.29036C69.8778 1.28664 69.787 1.30133 69.7019 1.3336C69.6167 1.36587 69.539 1.41504 69.4733 1.47812C69.4077 1.54121 69.3555 1.61691 69.3198 1.7007C69.2842 1.78448 69.2658 1.8746 69.2659 1.96565L69.2596 6.34514" stroke="#204FF4" stroke-width="0.674699" stroke-miterlimit="10"/>
<path d="M86.9235 12.2661V18.3251L87.8926 18.9539V27.9664H82.1449" stroke="#204FF4" stroke-width="0.674699" stroke-miterlimit="10"/>
<path d="M87.8926 30.5132H82.9169" stroke="#204FF4" stroke-width="0.674699" stroke-miterlimit="10"/>
<path d="M72.8359 29.6921H41.5294" stroke="#204FF4" stroke-width="0.674699" stroke-miterlimit="10"/>
<path d="M24.0264 26.415C24.0264 26.415 21.2247 28.3719 22.5051 32.1979" stroke="#204FF4" stroke-width="0.674699" stroke-miterlimit="10"/>
<path d="M22.1709 29.7864H11.4413" stroke="#204FF4" stroke-width="0.674699" stroke-miterlimit="10"/>
<path d="M36.73 33.8847C34.868 33.8847 33.3585 32.3752 33.3585 30.5131C33.3585 28.6511 34.868 27.1416 36.73 27.1416C38.5921 27.1416 40.1016 28.6511 40.1016 30.5131C40.1016 32.3752 38.5921 33.8847 36.73 33.8847Z" stroke="#204FF4" stroke-width="0.674699" stroke-miterlimit="10"/>
<path d="M55.0324 22.7787C53.6043 22.7787 52.4466 21.621 52.4466 20.1929C52.4466 18.7649 53.6043 17.6072 55.0324 17.6072C56.4605 17.6072 57.6182 18.7649 57.6182 20.1929C57.6182 21.621 56.4605 22.7787 55.0324 22.7787Z" stroke="#204FF4" stroke-width="0.674699" stroke-miterlimit="10"/>
<path d="M31.4103 22.8051C29.9823 22.8051 28.8246 21.6474 28.8246 20.2193C28.8246 18.7912 29.9823 17.6335 31.4103 17.6335C32.8384 17.6335 33.9961 18.7912 33.9961 20.2193C33.9961 21.6474 32.8384 22.8051 31.4103 22.8051Z" stroke="#204FF4" stroke-width="0.674699" stroke-miterlimit="10"/>
<path d="M77.897 33.8973C76.035 33.8973 74.5255 32.3879 74.5255 30.5258C74.5255 28.6638 76.035 27.1543 77.897 27.1543C79.7591 27.1543 81.2686 28.6638 81.2686 30.5258C81.2686 32.3879 79.7591 33.8973 77.897 33.8973Z" stroke="#204FF4" stroke-width="0.674699" stroke-miterlimit="10"/>
<path d="M27.9957 33.8847C26.1336 33.8847 24.6241 32.3752 24.6241 30.5131C24.6241 28.6511 26.1336 27.1416 27.9957 27.1416C29.8577 27.1416 31.3672 28.6511 31.3672 30.5131C31.3672 32.3752 29.8577 33.8847 27.9957 33.8847Z" stroke="#204FF4" stroke-width="0.674699" stroke-miterlimit="10"/>
<path d="M11.4414 28.4221V30.9087" stroke="#204FF4" stroke-width="0.674699" stroke-miterlimit="10"/>
<path d="M63.1438 1.28906L67.8936 24.7153H16.8437L0.569744 29.3621" stroke="#204FF4" stroke-width="0.674699" stroke-miterlimit="10"/>
<path d="M27.2299 20.0534H25.3383C24.9669 20.0531 24.6029 19.9498 24.2867 19.755C23.9705 19.5603 23.7144 19.2816 23.5471 18.9501L23.399 18.6551C23.0601 17.9831 22.9923 17.2067 23.2094 16.4861L23.945 14.0446C24.0315 13.7583 24.1997 13.5035 24.4289 13.3113C24.6581 13.1191 24.9384 12.998 25.2354 12.9627L27.2098 12.7292C27.6553 12.6767 28.071 12.4786 28.3923 12.1656L29.7567 10.8338C30.5925 10.0189 31.7136 9.56261 32.8809 9.56226H38.7604C41.2533 9.56256 43.7186 10.0842 45.998 11.0937L49.8315 12.7919C50.9779 13.3 52.1756 13.6838 53.4038 13.9367L54.8272 14.2292C56.0618 14.473 57.1955 15.0799 58.0829 15.9723C58.9703 16.8646 59.571 18.0016 59.808 19.2375L59.9736 20.0534" stroke="#204FF4" stroke-width="0.674699" stroke-miterlimit="10"/>
<path d="M32.8965 13.9392H53.4043" stroke="#204FF4" stroke-width="0.674699" stroke-miterlimit="10"/>
<path d="M50.7402 20.0498H35.6462" stroke="#204FF4" stroke-width="0.674699" stroke-miterlimit="10"/>
</svg>
