<svg width="68" height="42" viewBox="0 0 68 42" fill="none" xmlns="http://www.w3.org/2000/svg">
<path d="M30.4083 40.1409L32.4123 40.8958L32.4056 38.4554C32.4053 38.379 32.4233 38.3036 32.4578 38.2355C32.4924 38.1674 32.5426 38.1084 32.6044 38.0635L36.3345 35.3499C36.4275 35.2824 36.5415 35.2502 36.656 35.2592L41.5011 35.6453L43.508 34.8817L45.7283 33.564C45.8202 33.5096 45.9274 33.4872 46.0334 33.5003L49.86 33.9733C49.8746 33.975 49.8891 33.9775 49.9034 33.981L53.036 34.6626C53.1241 34.6817 53.205 34.7251 53.2697 34.7879C53.3343 34.8507 53.3801 34.9304 53.4019 35.0178L53.8623 36.8751L55.8201 39.8986H57.0412L56.1154 35.6723L54.3325 31.4567C54.2999 31.3798 54.2879 31.2958 54.2976 31.2129C54.3072 31.13 54.3382 31.051 54.3875 30.9836L58.3222 25.6018C58.3276 25.5935 58.3337 25.5858 58.3406 25.5787L60.4769 23.0012L59.1611 20.4594C59.1103 20.3615 59.0946 20.249 59.1167 20.1409L59.7278 17.1483C59.7411 17.0832 59.7677 17.0216 59.8059 16.9673C59.8441 16.913 59.8931 16.8672 59.9498 16.8326L61.0648 16.1569L61.2279 14.0244C61.233 13.9568 61.2523 13.8909 61.2846 13.8312C61.3169 13.7715 61.3614 13.7192 61.4152 13.6779L64.1462 11.5773L63.9116 8.80675C63.9054 8.73461 63.9156 8.66201 63.9414 8.59433C63.9671 8.52665 64.0077 8.46563 64.0602 8.41579L66.6454 5.96284L65.2939 3.37668L64.1191 3.25794L62.6711 7.31915C62.6447 7.3933 62.6005 7.45986 62.5425 7.51303C62.4844 7.5662 62.4142 7.60437 62.3381 7.6242L58.8194 8.5297L57.7633 10.4903C57.7379 10.5366 57.7053 10.5787 57.6668 10.6148L54.8991 13.1875L54.8673 13.2155L52.2898 15.2253C52.221 15.2782 52.1393 15.3115 52.0533 15.3219L50.0338 15.5767C49.9556 15.5865 49.8761 15.577 49.8025 15.549C49.7288 15.521 49.6631 15.4754 49.6111 15.4162C49.5591 15.357 49.5224 15.2859 49.5042 15.2092C49.486 15.1325 49.4868 15.0526 49.5067 14.9763L50.0424 12.9133L48.7981 11.1033L48.7914 11.0937L48.1986 10.1853L46.6251 10.6602L46.5759 14.3073C46.5741 14.3935 46.5498 14.4777 46.5054 14.5515L45.7187 15.848C45.6745 15.9207 45.6119 15.9805 45.5372 16.0213C45.4625 16.062 45.3783 16.0823 45.2933 16.08C45.2082 16.0778 45.1252 16.0531 45.0528 16.0084C44.9803 15.9638 44.921 15.9008 44.8807 15.8258L43.9762 14.1451C43.9321 14.0643 43.9123 13.9724 43.9193 13.8806L44.2764 9.16586C44.2839 9.06792 44.3211 8.97461 44.3831 8.89837C44.445 8.82212 44.5287 8.76659 44.623 8.73918L47.4322 7.92346L46.8211 7.49967L44.8083 8.05668C44.7203 8.08122 44.6272 8.08027 44.5397 8.05396C44.4522 8.02764 44.374 7.97703 44.3141 7.90801L43.4704 6.93302L40.6226 8.0393C40.531 8.07435 40.4308 8.08063 40.3355 8.05732C40.2402 8.034 40.1543 7.98219 40.0891 7.90879C40.024 7.83539 39.9828 7.74389 39.971 7.64648C39.9592 7.54907 39.9774 7.45038 40.0231 7.36356L40.7375 6.04586L39.7934 6.00918C39.7419 6.00754 39.691 5.99743 39.6428 5.97925L38.1793 5.43094L36.8703 5.4068C36.8092 5.40594 36.7489 5.39315 36.6927 5.36915L35.2176 4.75423L27.0643 4.49069H27.0248L19.1089 3.56782H19.0829L12.2617 2.39686L12.225 2.38913L6.74381 1L6.34994 1.94411C6.32413 2.00661 6.28548 2.06299 6.23649 2.1096C6.1875 2.15621 6.12928 2.19201 6.06557 2.21467C6.00186 2.23733 5.9341 2.24636 5.86668 2.24115C5.79926 2.23595 5.73368 2.21665 5.6742 2.18448L4.20398 1.40351L4.35458 3.73C4.35922 3.80045 4.348 3.87104 4.32175 3.93658L1.87653 10.1814L1 13.091L1.48267 16.5739L2.0947 20.0492L3.33903 23.7175L6.42814 27.2893L9.4989 27.8945C9.55597 27.9056 9.61059 27.9268 9.66011 27.9573L14.2861 30.8224L18.2285 30.8282C18.3091 30.8283 18.3885 30.8485 18.4592 30.8871L22.4616 33.0717C22.5265 33.1074 22.5823 33.1576 22.6247 33.2184L24.2793 35.5594L25.0661 34.8836C25.1354 34.8245 25.2201 34.7863 25.3103 34.7733C25.4005 34.7603 25.4925 34.7731 25.5758 34.8103L28.245 36.0005C28.3478 36.0463 28.4315 36.1265 28.4815 36.2274L30.4083 40.1409Z" stroke="#204FF4" stroke-width="0.701001" stroke-miterlimit="10"/>
<path d="M13.3478 12.8105C14.2373 12.8105 14.9583 12.0894 14.9583 11.2C14.9583 10.3105 14.2373 9.58948 13.3478 9.58948C12.4584 9.58948 11.7373 10.3105 11.7373 11.2C11.7373 12.0894 12.4584 12.8105 13.3478 12.8105Z" stroke="#204FF4" stroke-width="0.701001" stroke-miterlimit="10"/>
<path d="M41.7994 28.3786C43.2818 28.3786 44.4836 27.1768 44.4836 25.6944C44.4836 24.212 43.2818 23.0103 41.7994 23.0103C40.317 23.0103 39.1152 24.212 39.1152 25.6944C39.1152 27.1768 40.317 28.3786 41.7994 28.3786Z" stroke="#204FF4" stroke-width="0.701001" stroke-miterlimit="10"/>
<path d="M14.958 11.7368L23.5473 13.6157L30.5262 25.6945H39.1155" stroke="#204FF4" stroke-width="0.701001" stroke-miterlimit="10" stroke-dasharray="1.4 1.4"/>
</svg>
