<svg width="79" height="36" viewBox="0 0 79 36" fill="none" xmlns="http://www.w3.org/2000/svg">
<path d="M3.7901 24.1467L1.00056 22.6951C1.00056 22.6951 0.950334 18.1742 1.79924 14.1189C1.88272 13.7251 2.06936 13.3605 2.34002 13.0624C2.61069 12.7644 2.95565 12.5437 3.33966 12.4228L10.8442 10.0334C11.8416 9.71767 12.7657 9.20527 13.5618 8.52647L20.8303 2.29945C21.8056 1.46563 23.0465 1.00727 24.3297 1.00684H58.5138C58.9178 1.00674 59.3064 1.16186 59.5993 1.44013C59.8923 1.7184 60.0671 2.09857 60.0877 2.50206L60.3858 8.39587" stroke="#204FF4" stroke-width="0.701001" stroke-miterlimit="10"/>
<path d="M26.3655 23.7582H17.2686" stroke="#204FF4" stroke-width="0.701001" stroke-miterlimit="10"/>
<path d="M10.608 28.9689C13.619 28.9689 16.0598 26.528 16.0598 23.5171C16.0598 20.5062 13.619 18.0653 10.608 18.0653C7.59709 18.0653 5.15625 20.5062 5.15625 23.5171C5.15625 26.528 7.59709 28.9689 10.608 28.9689Z" stroke="#204FF4" stroke-width="0.701001" stroke-miterlimit="10"/>
<path d="M31.2445 1C31.2445 1 30.9398 5.49404 27.8874 8.06254C26.2013 9.48241 23.4067 9.8558 21.2451 9.84073" stroke="#204FF4" stroke-width="0.701001" stroke-miterlimit="10"/>
<path d="M47.7976 9.82581L47.3371 9.84087H20.7731C19.6065 9.83798 18.4777 10.2539 17.5918 11.0129L16.6357 11.8334" stroke="#204FF4" stroke-width="0.701001" stroke-miterlimit="10"/>
<path d="M56.6986 1.07703C56.6986 1.07703 56.3922 5.57272 53.3498 8.14122C53.246 8.22829 53.1388 8.30865 53.0283 8.38902" stroke="#204FF4" stroke-width="0.701001" stroke-miterlimit="10"/>
<path d="M24.6436 29.0725V25.8209L25.3669 25.3671C25.7816 25.1069 26.0955 24.7134 26.257 24.2512C26.4186 23.789 26.4182 23.2857 26.256 22.8238C25.8591 21.7104 25.9071 20.4869 26.3899 19.408C26.5478 19.0479 26.8014 18.7381 27.1232 18.5123C27.445 18.2864 27.8227 18.1532 28.215 18.1271L41.8243 17.1443L48.0664 9.50407C48.349 9.15782 48.705 8.87874 49.1086 8.68703C49.5123 8.49532 49.9536 8.39578 50.4005 8.39563H73.1151C73.5592 8.39563 73.9851 8.57204 74.2991 8.88605C74.6131 9.20005 74.7895 9.62594 74.7895 10.07V23.465L76.206 25.2667L76.2462 29.0842" stroke="#204FF4" stroke-width="0.701001" stroke-miterlimit="10"/>
<path d="M29.6094 21.675H35.3843C36.4465 21.6749 37.4909 21.9479 38.4172 22.4678C39.3434 22.9877 40.1205 23.737 40.6737 24.6437L42.8839 28.2688C43.1505 28.7064 43.5235 29.0695 43.9682 29.3242C44.4129 29.5789 44.9148 29.7169 45.4272 29.7255L59.5724 29.9682" stroke="#204FF4" stroke-width="0.701001" stroke-miterlimit="10"/>
<path d="M60.5563 8.38916V17.5949H47.2148" stroke="#204FF4" stroke-width="0.701001" stroke-miterlimit="10"/>
<path d="M77.8072 11.4146V22.3265C77.8072 22.6614 77.4355 22.9226 76.97 22.9226C76.5112 22.9226 76.1328 22.6564 76.1328 22.3265V11.4146C76.1328 11.0797 76.5045 10.8202 76.97 10.8202C77.4355 10.8202 77.8072 11.0864 77.8072 11.4146Z" stroke="#204FF4" stroke-width="0.701001" stroke-miterlimit="10"/>
<path d="M33.1858 35.0702C36.0035 35.0702 38.2876 32.7861 38.2876 29.9684C38.2876 27.1507 36.0035 24.8666 33.1858 24.8666C30.3682 24.8666 28.084 27.1507 28.084 29.9684C28.084 32.7861 30.3682 35.0702 33.1858 35.0702Z" stroke="#204FF4" stroke-width="0.701001" stroke-miterlimit="10"/>
<path d="M67.2259 35.0704C70.0435 35.0704 72.3277 32.7862 72.3277 29.9685C72.3277 27.1509 70.0435 24.8667 67.2259 24.8667C64.4082 24.8667 62.124 27.1509 62.124 29.9685C62.124 32.7862 64.4082 35.0704 67.2259 35.0704Z" stroke="#204FF4" stroke-width="0.701001" stroke-miterlimit="10"/>
</svg>
