<svg width="20" height="20" viewBox="0 0 20 20" fill="none" xmlns="http://www.w3.org/2000/svg">
<path d="M10.0506 19.9328C9.09965 19.9328 8.14868 19.9432 7.19771 19.9297C6.27322 19.9163 5.34482 19.9124 4.43768 19.694C2.23539 19.1639 0.893788 17.7838 0.392911 15.5788C0.224506 14.8407 0.192383 14.0823 0.188043 13.3286C0.1756 11.1446 0.1756 8.96057 0.188043 6.77655C0.194119 5.87658 0.237959 4.97486 0.499248 4.10224C1.1069 2.07523 2.4676 0.862241 4.51364 0.395105C5.2515 0.225789 6.00976 0.191925 6.76324 0.187584C8.95165 0.175428 11.1401 0.175428 13.3285 0.187584C14.1965 0.193662 15.0685 0.235774 15.9149 0.47542C17.9983 1.06715 19.247 2.44382 19.7144 4.54376C19.9102 5.42333 19.9189 6.32374 19.9245 7.2172C19.9358 9.10456 19.9358 10.9918 19.9245 12.8788C19.9184 13.8088 19.911 14.7426 19.6936 15.6552C19.1641 17.8784 17.7708 19.2277 15.5464 19.7209C14.6861 19.9115 13.8102 19.9167 12.9339 19.9293C11.973 19.9432 11.0133 19.9328 10.0506 19.9328ZM10.0567 1.90548C10.0567 1.91547 10.0567 1.92545 10.0567 1.935C9.26155 1.935 8.4664 1.92328 7.66951 1.93848C6.75803 1.95541 5.84656 1.93587 4.94811 2.11474C3.52144 2.3991 2.57914 3.22223 2.18374 4.6384C2.01012 5.26921 1.97062 5.91868 1.96672 6.56773C1.94979 8.60038 1.93417 10.6339 1.94285 12.6665C1.94632 13.5001 1.94675 14.3389 2.11386 15.1624C2.40466 16.5951 3.23193 17.5372 4.65557 17.9288C5.26322 18.0955 5.88649 18.1385 6.50933 18.1411C8.86875 18.1512 11.2282 18.1503 13.5876 18.1385C14.1056 18.1358 14.6224 18.0873 15.1319 17.9935C16.5794 17.7252 17.5317 16.8864 17.9249 15.4485C18.0985 14.8168 18.1358 14.1669 18.1389 13.5188C18.1499 11.2091 18.1499 8.8995 18.1389 6.58987C18.1389 5.99683 18.0985 5.40336 17.9653 4.82074C17.7365 3.81918 17.2161 3.02513 16.3081 2.51979C15.6527 2.15468 14.9292 2.0201 14.1896 1.99882C12.8128 1.95497 11.4348 1.935 10.0584 1.90548H10.0567Z" fill="white"/>
<path d="M10.0515 4.97881C12.884 4.9914 15.1428 7.26283 15.1297 10.0843C15.1163 12.8932 12.8293 15.1499 10.0081 15.1329C7.20554 15.116 4.96114 12.8237 4.97763 9.99575C4.99412 7.2294 7.2828 4.96622 10.0515 4.97881ZM10.0567 6.74576C8.23854 6.74186 6.75805 8.21664 6.74416 10.0452C6.73027 11.8738 8.21988 13.3595 10.0485 13.3621C10.9188 13.3532 11.7506 13.0015 12.3634 12.3831C12.9761 11.7648 13.3203 10.9297 13.3214 10.0591C13.3225 9.18846 12.9803 8.35253 12.3692 7.73265C11.758 7.11276 10.9271 6.75894 10.0567 6.74794V6.74576Z" fill="white"/>
<path d="M15.3447 5.96376C15.1109 5.96713 14.8814 5.90122 14.6851 5.77434C14.4887 5.64746 14.3343 5.46529 14.2413 5.25078C14.1483 5.03627 14.1209 4.79903 14.1624 4.56894C14.204 4.33885 14.3127 4.12622 14.4749 3.95784C14.6371 3.78946 14.8455 3.67286 15.0738 3.62274C15.3021 3.57262 15.5402 3.59123 15.758 3.67621C15.9757 3.76119 16.1635 3.90875 16.2976 4.10028C16.4316 4.29182 16.506 4.51876 16.5114 4.75251C16.5143 4.90869 16.4865 5.06393 16.4295 5.20935C16.3725 5.35477 16.2874 5.48752 16.179 5.60001C16.0706 5.71251 15.9412 5.80253 15.798 5.86495C15.6549 5.92736 15.5008 5.96094 15.3447 5.96376Z" fill="white"/>
</svg>
