<svg width="19" height="25" viewBox="0 0 19 25" fill="none" xmlns="http://www.w3.org/2000/svg">
<path d="M15.272 23.429H3.039C2.49822 23.429 1.9796 23.2142 1.59721 22.8318C1.21482 22.4494 1 21.9308 1 21.39V9.83704H17.311V21.39C17.311 21.9308 17.0962 22.4494 16.7138 22.8318C16.3314 23.2142 15.8128 23.429 15.272 23.429Z" stroke="#89A1C7" stroke-width="1.5" stroke-linecap="round" stroke-linejoin="round"/>
<path d="M3.71875 9.837V6.437C3.71875 5.723 3.85938 5.016 4.13262 4.35635C4.40585 3.6967 4.80634 3.09733 5.31121 2.59246C5.81608 2.08759 6.41545 1.6871 7.0751 1.41387C7.73475 1.14063 8.44175 1 9.15575 1C9.86975 1 10.5768 1.14063 11.2364 1.41387C11.896 1.6871 12.4954 2.08759 13.0003 2.59246C13.5052 3.09733 13.9056 3.6967 14.1789 4.35635C14.4521 5.016 14.5928 5.723 14.5928 6.437V9.837" stroke="#89A1C7" stroke-width="1.5" stroke-linecap="round" stroke-linejoin="round"/>
<path d="M9.06067 16.041C9.43181 16.041 9.73267 15.7402 9.73267 15.369C9.73267 14.9979 9.43181 14.697 9.06067 14.697C8.68954 14.697 8.38867 14.9979 8.38867 15.369C8.38867 15.7402 8.68954 16.041 9.06067 16.041Z" stroke="#89A1C7" stroke-width="1.5" stroke-linecap="round" stroke-linejoin="round"/>
<path d="M9.06055 18.728V16.041" stroke="#89A1C7" stroke-width="1.5" stroke-linecap="round" stroke-linejoin="round"/>
</svg>
