<svg width="379" height="382" viewBox="0 0 379 382" fill="none" xmlns="http://www.w3.org/2000/svg">
<mask id="mask0_480_682" style="mask-type:alpha" maskUnits="userSpaceOnUse" x="0" y="0" width="379" height="382">
<rect width="379" height="382" fill="#D9D9D9"/>
</mask>
<g mask="url(#mask0_480_682)">
<path d="M202.868 155.105H227.98V349.975H202.868V155.105Z" fill="#DCE3EE"/>
<path d="M240.063 133.713C244.479 131.245 249.459 129.964 254.518 129.993H396.348C401.406 129.962 406.387 131.244 410.802 133.713C416.739 137.085 422.887 143.407 422.887 155.106H228.017C227.979 143.407 234.127 137.085 240.063 133.713Z" fill="#DCE3EE"/>
<path d="M410.763 371.368C406.349 373.841 401.368 375.123 396.309 375.087H254.479C249.419 375.121 244.438 373.839 240.024 371.368C234.088 367.995 227.94 361.731 227.94 349.975H422.848C422.848 361.683 416.7 367.995 410.763 371.368Z" fill="#DCE3EE"/>
<path d="M223.981 -64.877H249.094V129.993H223.981V-64.877Z" fill="#DCE3EE"/>
<path d="M4.0006 -64.877H29.1133V129.993H4.0006V-64.877Z" fill="#DCE3EE"/>
<path d="M211.898 151.386C207.484 153.859 202.502 155.141 197.443 155.105H55.6127C50.5535 155.139 45.5724 153.857 41.1579 151.386C35.2315 148.013 29.0737 141.701 29.0737 129.993H223.943C223.982 141.701 217.834 148.013 211.898 151.386Z" fill="#DCE3EE"/>
</g>
</svg>
