<svg width="22" height="16" viewBox="0 0 22 16" fill="none" xmlns="http://www.w3.org/2000/svg">
<path d="M18.335 0.856445H3.66578C3.22194 0.856382 2.78243 0.944882 2.37237 1.11689C1.9623 1.28889 1.58971 1.54103 1.27587 1.8589C0.962029 2.17678 0.713079 2.55416 0.543257 2.9695C0.373436 3.38483 0.286071 3.82998 0.286133 4.27952V12.4247C0.285754 13.3334 0.641428 14.2052 1.27507 14.8486C1.90872 15.492 2.76854 15.8545 3.66578 15.8564H18.335C19.2322 15.8545 20.092 15.492 20.7257 14.8486C21.3593 14.2052 21.715 13.3334 21.7146 12.4247V4.27952C21.7147 3.82998 21.6273 3.38483 21.4575 2.9695C21.2877 2.55416 21.0387 2.17678 20.7249 1.8589C20.411 1.54103 20.0384 1.28889 19.6284 1.11689C19.2183 0.944882 18.7788 0.856382 18.335 0.856445ZM8.49162 12.0537V4.66157L13.5101 8.35954L8.49162 12.0537Z" fill="white"/>
</svg>
